<?xml version="1.0" encoding="utf-8"?>
<!-- Generator: Adobe Illustrator 23.0.2, SVG Export Plug-In . SVG Version: 6.00 Build 0)  -->
<svg version="1.1" id="Layer_1" xmlns="http://www.w3.org/2000/svg" xmlns:xlink="http://www.w3.org/1999/xlink" x="0px" y="0px"
	 viewBox="0 0 45.88 57.36" style="enable-background:new 0 0 45.88 57.36;" xml:space="preserve">
<style type="text/css">
	.st0{fill:#FFFFFF;}
</style>
<path class="st0" d="M22.94,37.04c0.36,0,0.71,0.16,0.95,0.47l5.18,6.77c0.1,0.13,0.14,0.27,0.14,0.42c0,0.21-0.09,0.41-0.27,0.55
	c-0.13,0.1-0.27,0.14-0.42,0.14h-2.47v9.9c0,0.57,0.23,1.09,0.6,1.46c0.38,0.38,0.9,0.62,1.48,0.62H43.8c0.58,0,1.1-0.24,1.48-0.62
	c0.37-0.38,0.6-0.89,0.6-1.46c0,0,0-6.62,0-7.75c0-1.13-0.15-1.81-0.58-2.39L33.32,28.68v0v0l11.99-16.46
	c0.43-0.58,0.58-1.27,0.58-2.39s0-7.75,0-7.75c0-0.57-0.23-1.09-0.6-1.46C44.91,0.24,44.38,0,43.8,0L28.13,0
	c-0.58,0-1.1,0.24-1.48,0.62c-0.37,0.38-0.6,0.89-0.6,1.46v9.9h2.47c0.15,0,0.29,0.05,0.42,0.14c0.18,0.14,0.27,0.34,0.27,0.55
	c0,0.15-0.05,0.29-0.14,0.42l-5.18,6.77c-0.23,0.31-0.59,0.47-0.95,0.47c-0.36,0-0.71-0.16-0.95-0.47l-5.18-6.77
	c-0.1-0.13-0.14-0.27-0.14-0.42c0-0.21,0.09-0.41,0.27-0.55c0.13-0.1,0.27-0.14,0.42-0.14h2.47v-9.9c0-0.57-0.23-1.09-0.6-1.46
	C18.86,0.24,18.33,0,17.75,0L2.08,0C1.5,0,0.98,0.24,0.6,0.62C0.23,0.99,0,1.51,0,2.08c0,0,0,6.62,0,7.75s0.15,1.81,0.58,2.39
	l11.99,16.46v0v0L0.58,45.14C0.15,45.72,0,46.4,0,47.53c0,1.13,0,7.75,0,7.75c0,0.57,0.23,1.09,0.6,1.46
	c0.38,0.38,0.9,0.62,1.48,0.62h15.67c0.58,0,1.1-0.24,1.48-0.62c0.37-0.38,0.6-0.89,0.6-1.46v-9.9h-2.47
	c-0.15,0-0.29-0.05-0.42-0.14c-0.18-0.14-0.27-0.34-0.27-0.55c0-0.15,0.05-0.29,0.14-0.42L22,37.5
	C22.23,37.2,22.58,37.04,22.94,37.04z"/>
</svg>
